<?xml version="1.0" encoding="utf-8"?>
<!DOCTYPE svg PUBLIC "-//W3C//DTD SVG 1.1//EN" "http://www.w3.org/Graphics/SVG/1.1/DTD/svg11.dtd">
<svg version="1.1" xmlns="http://www.w3.org/2000/svg" xmlns:xlink="http://www.w3.org/1999/xlink" x="0px" y="0px" width="1024px" height="1024px" viewBox="0 0 1024 1024" enable-background="new 0 0 1024 1024" xml:space="preserve">
<metadata> Free Icon Download -- www.onlinewebfonts.com </metadata>

  <path d="M511.874133 0.335644c-282.503119 0-511.516999 229.013881-511.516999 511.516999 0 4.674463 0.071631 9.330506 0.196475 13.975293 0.040932 1.520633 0.118704 3.032056 0.172939 4.548596 0.11154 3.122107 0.228197 6.243191 0.394996 9.350972 0.096191 1.786693 0.225127 3.564175 0.338714 5.345752 0.181125 2.832512 0.369414 5.662977 0.597611 8.483208 0.150426 1.865487 0.325411 3.722788 0.49528 5.582135 0.25071 2.734274 0.514723 5.463432 0.807389 8.184403 0.201591 1.870604 0.418532 3.736091 0.64059 5.600555 0.323365 2.714831 0.667196 5.423523 1.032516 8.125051 0.246617 1.826602 0.499373 3.651157 0.765433 5.470595 0.404206 2.762927 0.838088 5.51562 1.286296 8.264221 0.281409 1.726318 0.558725 3.454682 0.857531 5.175883 0.505513 2.912329 1.049912 5.811356 1.604544 8.706289 0.292666 1.530866 0.572028 3.064802 0.87902 4.590552 0.670266 3.330862 1.387603 6.643304 2.122337 9.950629 0.237407 1.067308 0.454348 2.14178 0.697895 3.207042 2.036379 8.899694 4.305049 17.711384 6.798846 26.427906 0.199545 0.697895 0.417509 1.387603 0.620124 2.083451 1.050935 3.613294 2.130524 7.212262 3.258207 10.791787 0.347924 1.103124 0.715291 2.197038 1.070378 3.297093 1.023306 3.173273 2.066055 6.337335 3.15076 9.484002 0.418532 1.215688 0.852414 2.423189 1.280156 3.634784 1.071402 3.036149 2.165316 6.061043 3.291976 9.071609 0.454348 1.212618 0.915859 2.420119 1.379417 3.62762 1.160429 3.028986 2.348488 6.043646 3.565199 9.045003 0.457418 1.127683 0.915859 2.255367 1.38044 3.378957 1.296529 3.133364 2.62785 6.249331 3.983731 9.350972 0.415462 0.950651 0.825808 1.90335 1.24741 2.850931 1.518586 3.414773 3.077082 6.80601 4.668323 10.17985 0.285502 0.605797 0.561795 1.216711 0.850367 1.821485 7.823176 16.432251 16.496719 32.378431 25.964348 47.787376 0.026606 0.044002 0.054235 0.086981 0.081864 0.12996 2.304486 3.749394 4.66116 7.462972 7.058766 11.146874 0.202615 0.311085 0.409322 0.620124 0.61296 0.931209 2.251274 3.442402 4.54348 6.856152 6.875594 10.240225 0.260943 0.378623 0.523933 0.7552 0.784876 1.1328 2.326998 3.357468 4.691859 6.685259 7.095605 9.983375 0.234337 0.321318 0.468674 0.64366 0.703011 0.963954 2.515287 3.434216 5.071506 6.836709 7.670703 10.205433 0.107447 0.13917 0.212848 0.279363 0.321318 0.418532 22.223141 28.747741 47.438429 55.057967 75.18026 78.475306 89.042989 75.16184 204.085118 120.492258 329.732793 120.492258s240.689804-45.330418 329.732793-120.492258c27.742854-23.418362 52.957119-49.727565 75.18026-78.475306 0.107447-0.13917 0.213871-0.279363 0.321318-0.418532 2.598174-3.368724 5.154393-6.771217 7.670703-10.205433 0.23536-0.321318 0.468674-0.642636 0.703011-0.963954 2.403746-3.299139 4.76963-6.625908 7.095605-9.983375 0.261966-0.3776 0.524956-0.754177 0.784876-1.1328 2.332115-3.385097 4.623297-6.797823 6.875594-10.240225 0.203638-0.311085 0.410346-0.620124 0.61296-0.931209 2.39863-3.683902 4.754281-7.397481 7.058766-11.146874 0.026606-0.044002 0.054235-0.086981 0.081864-0.12996 9.467629-15.408945 18.141172-31.355125 25.964348-47.787376 0.288572-0.604774 0.564865-1.215688 0.850367-1.821485 1.590218-3.373841 3.149736-6.766101 4.668323-10.17985 0.421602-0.946558 0.830925-1.90028 1.24741-2.850931 1.356904-3.101641 2.687202-6.217608 3.983731-9.350972 0.464581-1.12359 0.923022-2.251274 1.38044-3.378957 1.216711-3.001357 2.40477-6.016017 3.565199-9.045003 0.462534-1.207501 0.925069-2.415003 1.379417-3.62762 1.12666-3.009544 2.220574-6.034437 3.291976-9.071609 0.427742-1.211595 0.861624-2.419096 1.280156-3.634784 1.083681-3.146667 2.12643-6.310729 3.15076-9.484002 0.355087-1.100054 0.723477-2.193968 1.070378-3.297093 1.127683-3.579525 2.207271-7.179516 3.258207-10.791787 0.202615-0.696872 0.419556-1.38658 0.620124-2.083451 2.493797-8.716522 4.762467-17.528212 6.798846-26.427906 0.243547-1.065262 0.461511-2.139733 0.697895-3.207042 0.734734-3.307326 1.453095-6.619768 2.122337-9.950629 0.306992-1.524726 0.586354-3.059686 0.87902-4.590552 0.554632-2.894933 1.099031-5.79396 1.605567-8.706289 0.298805-1.721201 0.576121-3.448542 0.857531-5.175883 0.448208-2.7486 0.88209-5.501294 1.286296-8.264221 0.26606-1.820462 0.518816-3.645017 0.765433-5.470595 0.36532-2.701528 0.709151-5.41022 1.032516-8.125051 0.222057-1.864464 0.437975-3.729951 0.639566-5.600555 0.293689-2.720971 0.556679-5.450129 0.807389-8.184403 0.170892-1.859347 0.344854-3.716648 0.49528-5.582135 0.228197-2.820232 0.415462-5.650697 0.597611-8.483208 0.11461-1.781576 0.242524-3.559059 0.338714-5.345752 0.166799-3.107781 0.283456-6.228865 0.394996-9.350972 0.054235-1.517563 0.132006-3.027963 0.172939-4.548596 0.124843-4.643764 0.196475-9.30083 0.196475-13.975293C1023.391133 229.350548 794.377252 0.335644 511.874133 0.335644zM511.874133 996.448504c-124.112716 0-237.306754-46.680159-323.041394-123.413797 37.901215-145.236825 125.613906-154.780179 125.613906-154.780179l80.765465-8.974395c52.721759-3.365654 62.817698-35.895535 62.817698-35.895535l0-82.32703c-52.598962-21.310352-89.73986-72.806189-89.73986-133.048225l0-80.766488c0-79.299067 64.285119-143.583163 143.584186-143.583163s143.584186 64.284095 143.584186 143.583163l0 80.766488c0 60.242036-37.140898 111.738897-89.73986 133.048225l0 82.32703c0 0 10.095939 32.530904 62.817698 35.895535l80.765465 8.974395c0 0 87.711667 9.543354 125.613906 154.780179C749.181911 949.767322 635.986849 996.448504 511.874133 996.448504z" />


</svg>